<svg width="301" height="110" viewBox="0 0 301 110" fill="none" xmlns="http://www.w3.org/2000/svg">
<path d="M4.68043 5.30277L3.77124 105.021C94.2652 97.8913 161.234 98.7945 300.622 74.9691V33.7612C204.879 18.554 104.769 12.8249 5.58962 5.0751L4.68043 5.30277Z" fill="#CC0085"/>
<path d="M4.68043 5.30277L3.77124 105.021C94.2652 97.8913 161.234 98.7945 300.622 74.9691V33.7612C204.879 18.554 104.769 12.8249 5.58962 5.0751L4.68043 5.30277Z" fill="url(#paint0_linear_1_30)"/>
<g filter="url(#filter0_f_1_30)">
<path d="M248.081 28.4189H244.838C243.747 28.5498 243.464 29.2596 243.448 30.1593L243.506 37.9912L256.306 73.6695C257.128 76.6476 255.998 79.2195 254.684 82.1975L264.878 80.6312L284.339 31.5517L278.837 30.3334C276.951 30.1697 275.723 30.441 275.072 32.1318L268.932 50.5801L248.081 28.4189Z" fill="#81005C"/>
</g>
<g filter="url(#filter1_f_1_30)">
<path d="M214.488 47.3832L207.822 57.0692L181.887 46.7269C183.403 34.3499 191.386 31.3445 199.088 29.0054L219.238 41.1479L214.488 47.3832Z" fill="#80005B"/>
</g>
<g filter="url(#filter2_f_1_30)">
<path d="M23.0445 39.622L4.63338 50.2085L4.40608 101.32L27.7041 88.6843C31.8991 94.5889 39.2054 100.331 48.3646 101.765L89.3016 99.7262C95.6663 97.5497 106.195 93.8102 115.091 84.4519L103.735 83.5618L71.4588 73.3168L60.2076 56.3555L61.7987 28.3524L64.1853 21.5224L62.2533 18.3351L23.0445 39.622Z" fill="#80005B"/>
</g>
<g filter="url(#filter3_f_1_30)">
<path d="M41.4452 26.6273L4.8503 45.2961L5.75948 33.002L27.8073 21.1633L43.0363 19.342L43.9454 24.3507L41.4452 26.6273Z" fill="#80005B"/>
</g>
<path d="M39.7555 12.4618C45.2954 12.3087 49.1734 24.2136 39.5283 25.9798C38.1718 26.5316 35.4664 26.6343 32.5957 26.2212C28.6726 25.2018 25.9913 22.0082 28.7316 18.4966C30.8321 15.9538 33.4587 12.4529 39.7555 12.4618Z" fill="#501202"/>
<path d="M35.6976 12.8808C41.2374 12.7364 45.1154 24.249 35.4703 25.9148C34.1138 26.4352 31.4084 26.2474 28.5377 25.8579C23.9328 24.8964 21.8197 22.2828 24.56 18.9709C26.6605 16.5727 29.4008 12.8724 35.6976 12.8808Z" fill="#984930"/>
<path d="M34.9743 12.6393C40.5142 12.4949 44.3922 24.0075 34.747 25.6733C33.3905 26.1937 30.6851 26.0059 27.8145 25.6164C23.2095 24.6549 21.0965 22.0413 23.8368 18.7294C25.9372 16.3312 28.6775 12.631 34.9743 12.6393Z" fill="url(#paint1_radial_1_30)"/>
<path d="M35.6172 12.7865C41.1571 12.6421 45.0351 24.1547 35.3899 25.8204C34.0334 26.3409 31.328 26.1531 28.4574 25.7635C23.8524 24.8021 21.7394 22.1885 24.4797 18.8766C26.5801 16.4784 29.3204 12.7781 35.6172 12.7865Z" fill="url(#paint2_radial_1_30)"/>
<path d="M35.5369 13.1085C41.0767 12.9641 44.9547 24.4766 35.3096 26.1424C33.9531 26.6629 31.2477 26.4751 28.377 26.0855C23.772 25.1241 21.659 22.5105 24.3993 19.1986C26.4997 16.8004 29.2401 13.1001 35.5369 13.1085Z" fill="url(#paint3_radial_1_30)"/>
<path d="M35.6976 12.8808C41.2374 12.7364 45.1154 24.249 35.4703 25.9148C34.1138 26.4352 31.4084 26.2474 28.5377 25.8579C23.9328 24.8964 21.8197 22.2828 24.56 18.9709C26.6605 16.5727 29.4008 12.8724 35.6976 12.8808Z" fill="url(#paint4_linear_1_30)"/>
<path d="M34.0577 14.7758C38.2139 14.6675 41.1233 23.3046 33.8871 24.5544C32.8694 24.9448 30.8398 24.8039 28.6861 24.5117C25.2313 23.7904 23.646 21.8296 25.7018 19.3448C27.2777 17.5456 29.3336 14.7696 34.0577 14.7758Z" fill="#FEF532"/>
<path d="M42.2493 39.8856C42.4213 37.4755 42.4173 33.1586 36.624 33.0437L34.2935 32.8827C29.8748 32.714 28.1829 37.8396 27.5431 40.449L21.8375 71.7607C20.7657 78.9552 20.3995 84.1321 25.4349 84.5924C29.2923 84.6472 35.74 85.0383 39.5974 81.5808C41.403 79.9343 43.2424 78.5596 43.8566 74.8194C44.3769 72.5118 41.3823 70.0702 38.8741 71.5997C36.9332 72.095 35.28 71.819 35.9008 70.2313L42.2493 39.8856Z" fill="#501202"/>
<path d="M39.0672 39.4303C39.0119 36.9348 39.2352 32.7033 33.4419 32.5884L31.1114 32.4274C26.6927 32.2587 25.0007 37.3843 24.361 39.9937L18.6553 71.3054C17.5836 78.4999 19.8881 83.5629 24.9235 84.0232C28.7809 84.078 32.5579 84.583 36.4153 81.1255C38.2208 79.479 40.0603 78.1043 40.6744 74.3641C41.1947 72.0565 38.2002 69.6149 35.692 71.1444C33.751 71.6397 32.0979 71.3637 32.7186 69.776L39.0672 39.4303Z" fill="#4E2519"/>
<path d="M39.0672 39.4303C39.0119 36.9348 39.2352 32.7033 33.4419 32.5884L31.1114 32.4274C26.6927 32.2587 25.0007 37.3843 24.361 39.9937L18.6553 71.3054C17.5836 78.4999 19.8881 83.5629 24.9235 84.0232C28.7809 84.078 32.5579 84.583 36.4153 81.1255C38.2208 79.479 40.0603 78.1043 40.6744 74.3641C41.1947 72.0565 38.2002 69.6149 35.692 71.1444C33.751 71.6397 32.0979 71.3637 32.7186 69.776L39.0672 39.4303Z" fill="url(#paint5_linear_1_30)"/>
<path d="M39.115 39.4218C39.0597 36.9263 39.283 32.6948 33.4897 32.5799L31.1592 32.4189C26.7405 32.2502 25.0486 37.3758 24.4088 39.9852L18.7031 71.2969C17.6314 78.4914 19.936 83.5544 24.9714 84.0147C28.8287 84.0695 32.6057 84.5744 36.4631 81.117C38.2686 79.4705 40.1081 78.0958 40.7223 74.3556C41.2425 72.048 38.248 69.6064 35.7398 71.1359C33.7988 71.6312 32.1457 71.3552 32.7664 69.7675L39.115 39.4218Z" fill="url(#paint6_radial_1_30)"/>
<path d="M39.115 39.4218C39.0597 36.9263 39.283 32.6948 33.4897 32.5799L31.1592 32.4189C26.7405 32.2502 25.0486 37.3758 24.4088 39.9852L18.7031 71.2969C17.6314 78.4914 19.936 83.5544 24.9714 84.0147C28.8287 84.0695 32.6057 84.5744 36.4631 81.117C38.2686 79.4705 40.1081 78.0958 40.7223 74.3556C41.2425 72.048 38.248 69.6064 35.7398 71.1359C33.7988 71.6312 32.1457 71.3552 32.7664 69.7675L39.115 39.4218Z" fill="url(#paint7_radial_1_30)"/>
<path d="M39.115 39.4218C39.0597 36.9263 39.283 32.6948 33.4897 32.5799L31.1592 32.4189C26.7405 32.2502 25.0486 37.3758 24.4088 39.9852L18.7031 71.2969C17.6314 78.4914 19.936 83.5544 24.9714 84.0147C28.8287 84.0695 32.6057 84.5744 36.4631 81.117C38.2686 79.4705 40.1081 78.0958 40.7223 74.3556C41.2425 72.048 38.248 69.6064 35.7398 71.1359C33.7988 71.6312 32.1457 71.3552 32.7664 69.7675L39.115 39.4218Z" fill="url(#paint8_radial_1_30)"/>
<path d="M39.115 39.4218C39.0597 36.9263 39.283 32.6948 33.4897 32.5799L31.1592 32.4189C26.7405 32.2502 25.0486 37.3758 24.4088 39.9852L18.7031 71.2969C17.6314 78.4914 19.936 83.5544 24.9714 84.0147C28.8287 84.0695 32.6057 84.5744 36.4631 81.117C38.2686 79.4705 40.1081 78.0958 40.7223 74.3556C41.2425 72.048 38.248 69.6064 35.7398 71.1359C33.7988 71.6312 32.1457 71.3552 32.7664 69.7675L39.115 39.4218Z" fill="url(#paint9_radial_1_30)"/>
<path d="M39.115 39.4218C39.0597 36.9263 39.283 32.6948 33.4897 32.5799L31.1592 32.4189C26.7405 32.2502 25.0486 37.3758 24.4088 39.9852L18.7031 71.2969C17.6314 78.4914 19.936 83.5544 24.9714 84.0147C28.8287 84.0695 32.6057 84.5744 36.4631 81.117C38.2686 79.4705 40.1081 78.0958 40.7223 74.3556C41.2425 72.048 38.248 69.6064 35.7398 71.1359C33.7988 71.6312 32.1457 71.3552 32.7664 69.7675L39.115 39.4218Z" fill="url(#paint10_radial_1_30)"/>
<path d="M39.0014 39.6494C38.9461 37.154 39.1693 32.9225 33.3761 32.8076L31.0456 32.6466C26.6269 32.4779 24.9349 37.6035 24.2952 40.2129L18.5895 71.5245C17.5177 78.719 19.8223 83.7821 24.8577 84.2424C28.7151 84.2972 32.4921 84.8021 36.3494 81.3446C38.155 79.6982 39.9944 78.3235 40.6086 74.5833C41.1289 72.2756 38.1344 69.8341 35.6262 71.3635C33.6852 71.8588 32.0321 71.5828 32.6528 69.9952L39.0014 39.6494Z" fill="url(#paint11_radial_1_30)"/>
<path d="M39.0014 39.6494C38.9461 37.154 39.1693 32.9225 33.3761 32.8076L31.0456 32.6466C26.6269 32.4779 24.9349 37.6035 24.2952 40.2129L18.5895 71.5245C17.5177 78.719 19.8223 83.7821 24.8577 84.2424C28.7151 84.2972 32.4921 84.8021 36.3494 81.3446C38.155 79.6982 39.9944 78.3235 40.6086 74.5833C41.1289 72.2756 38.1344 69.8341 35.6262 71.3635C33.6852 71.8588 32.0321 71.5828 32.6528 69.9952L39.0014 39.6494Z" fill="url(#paint12_radial_1_30)"/>
<path d="M37.275 40.0128C37.6847 37.9662 37.6547 35.7535 33.5765 34.9912C30.4872 34.6717 26.6774 34.1651 25.3667 42.4839L19.6114 75.1845C19.0177 82.0899 24.6848 82.5778 28.7049 82.0954C34.2564 81.2553 37.219 77.762 38.0903 76.661C39.3598 75.0673 37.3176 73.1348 35.5287 74.0556C33.5579 75.0539 29.8534 75.3048 30.641 71.7956L37.275 40.0128Z" fill="#FFFE30"/>
<g filter="url(#filter4_f_1_30)">
<path d="M140.385 27.8568C133.666 32.0684 125.883 37.1004 122.037 41.312L123.839 48.3677C134.754 45.073 144.007 48.0895 145.954 50.3368L109.914 73.1449L107.293 81.6775C116.579 96.017 121.716 97.889 125.804 96.6094L167.415 92.8354C175.57 77.3113 175.507 88.1991 172.329 91.6868L187.073 91.0304L196.688 82.1537L187.729 47.5473L167.906 31.4668L140.385 27.8568Z" fill="#80005B"/>
</g>
<g filter="url(#filter5_f_1_30)">
<path d="M119.603 24.8372L98.7519 38.7605C87.0265 33.6128 79.0531 31.8474 73.4991 32.263L79.7543 17.4115L97.8252 11.8422C97.8252 11.8422 109.409 12.3063 110.336 12.7704C111.262 13.2345 116.591 19.5 116.591 19.5L119.603 24.8372Z" fill="#80005B"/>
</g>
<g filter="url(#filter6_f_1_30)">
<path d="M244.477 80.7624L244.071 84.0691L226.29 86.6217C222.049 84.8293 220.422 77.7429 219.224 69.8558L219.108 22.2266L235.557 24.1411L245.172 70.552L244.477 80.7624Z" fill="#81005C"/>
</g>
<g opacity="0.234513" filter="url(#filter7_f_1_30)">
<path d="M4.11179 60.6896L17.6649 103.62L4.22762 104.316L4.11179 60.6896Z" fill="#1B0014"/>
</g>
<path d="M160.361 25.4489L157.349 35.1192C165.872 37.1815 167.159 45.7711 160.361 47.293V52.3182C161.733 52.4114 162.766 52.537 163.248 52.7079C164.42 53.1239 167.74 54.132 167.842 55.0256C168.376 58.198 168.307 63.0112 167.739 64.7068C164.373 72.9455 158.349 73.6776 151.255 74.3674V80.0489C153.701 79.7899 155.527 79.279 156.145 78.6952C162.513 72.8002 166.444 77.8275 168.518 77.6081L174.019 77.0954L174.188 45.0983C174.647 36.9385 172.245 28.9483 160.361 25.4489Z" fill="#00108F"/>
<path d="M153.446 23.4388C150.465 23.4611 147.249 23.7287 143.78 24.2592C142.269 24.7096 141.312 25.4535 141.651 26.8846L142.306 33.7763C142.434 35.3594 143.271 35.9112 144.599 35.7453C149.541 34.813 155.016 34.7491 159.589 35.4172C164.896 35.8565 171.949 46.1252 160.818 46.0828C142.877 45.5205 130.097 49.804 129.835 66.9219C129.841 74.4776 139.128 83.054 149.514 83.1255C153.357 83.1973 160.35 82.5811 161.309 81.5257C165.703 77.1976 167.97 78.9851 170.483 81.1155L180.353 80.9924C181.937 80.6871 184.207 81.5691 183.753 77.5876L183.425 41.4884C183.413 34.4842 174.309 23.283 153.446 23.4388ZM162.927 54.1847C168.15 54.1191 169.007 55.4019 169.193 56.3588L169.357 62.1019C169.186 67.7587 166.845 69.3878 164.852 70.4703C159.664 72.6555 152.019 71.3849 149.289 69.814C145.773 68.0075 144.043 63.1626 146.012 59.6406C148.206 55.5507 154.186 54.1878 161.821 54.2257C162.209 54.2089 162.579 54.1891 162.927 54.1847Z" fill="#1323DC"/>
<path d="M153.446 23.4388C150.465 23.4611 147.249 23.7287 143.78 24.2592C142.269 24.7096 141.312 25.4535 141.651 26.8846L142.306 33.7763C142.434 35.3594 143.271 35.9112 144.599 35.7453C149.541 34.813 155.016 34.7491 159.589 35.4172C164.896 35.8565 171.949 46.1252 160.818 46.0828C142.877 45.5205 130.097 49.804 129.835 66.9219C129.841 74.4776 139.128 83.054 149.514 83.1255C153.357 83.1973 160.35 82.5811 161.309 81.5257C165.703 77.1976 167.97 78.9851 170.483 81.1155L180.353 80.9924C181.937 80.6871 184.207 81.5691 183.753 77.5876L183.425 41.4884C183.413 34.4842 174.309 23.283 153.446 23.4388ZM162.927 54.1847C168.15 54.1191 169.007 55.4019 169.193 56.3588L169.357 62.1019C169.186 67.7587 166.845 69.3878 164.852 70.4703C159.664 72.6555 152.019 71.3849 149.289 69.814C145.773 68.0075 144.043 63.1626 146.012 59.6406C148.206 55.5507 154.186 54.1878 161.821 54.2257C162.209 54.2089 162.579 54.1891 162.927 54.1847Z" fill="url(#paint13_radial_1_30)"/>
<path d="M153.446 23.4388C150.465 23.4611 147.249 23.7287 143.78 24.2592C142.269 24.7096 141.312 25.4535 141.651 26.8846L142.306 33.7763C142.434 35.3594 143.271 35.9112 144.599 35.7453C149.541 34.813 155.016 34.7491 159.589 35.4172C164.896 35.8565 171.949 46.1252 160.818 46.0828C142.877 45.5205 130.097 49.804 129.835 66.9219C129.841 74.4776 139.128 83.054 149.514 83.1255C153.357 83.1973 160.35 82.5811 161.309 81.5257C165.703 77.1976 167.97 78.9851 170.483 81.1155L180.353 80.9924C181.937 80.6871 184.207 81.5691 183.753 77.5876L183.425 41.4884C183.413 34.4842 174.309 23.283 153.446 23.4388ZM162.927 54.1847C168.15 54.1191 169.007 55.4019 169.193 56.3588L169.357 62.1019C169.186 67.7587 166.845 69.3878 164.852 70.4703C159.664 72.6555 152.019 71.3849 149.289 69.814C145.773 68.0075 144.043 63.1626 146.012 59.6406C148.206 55.5507 154.186 54.1878 161.821 54.2257C162.209 54.2089 162.579 54.1891 162.927 54.1847Z" fill="url(#paint14_radial_1_30)"/>
<path d="M153.446 23.4388C150.465 23.4611 147.249 23.7287 143.78 24.2592C142.269 24.7096 141.312 25.4535 141.651 26.8846L142.306 33.7763C142.434 35.3594 143.271 35.9112 144.599 35.7453C149.541 34.813 155.016 34.7491 159.589 35.4172C164.896 35.8565 171.949 46.1252 160.818 46.0828C142.877 45.5205 130.097 49.804 129.835 66.9219C129.841 74.4776 139.128 83.054 149.514 83.1255C153.357 83.1973 160.35 82.5811 161.309 81.5257C165.703 77.1976 167.97 78.9851 170.483 81.1155L180.353 80.9924C181.937 80.6871 184.207 81.5691 183.753 77.5876L183.425 41.4884C183.413 34.4842 174.309 23.283 153.446 23.4388ZM162.927 54.1847C168.15 54.1191 169.007 55.4019 169.193 56.3588L169.357 62.1019C169.186 67.7587 166.845 69.3878 164.852 70.4703C159.664 72.6555 152.019 71.3849 149.289 69.814C145.773 68.0075 144.043 63.1626 146.012 59.6406C148.206 55.5507 154.186 54.1878 161.821 54.2257C162.209 54.2089 162.579 54.1891 162.927 54.1847Z" fill="url(#paint15_radial_1_30)"/>
<path d="M153.446 23.4388C150.465 23.4611 147.249 23.7287 143.78 24.2592C142.269 24.7096 141.312 25.4535 141.651 26.8846L142.306 33.7763C142.434 35.3594 143.271 35.9112 144.599 35.7453C149.541 34.813 155.016 34.7491 159.589 35.4172C164.896 35.8565 171.949 46.1252 160.818 46.0828C142.877 45.5205 130.097 49.804 129.835 66.9219C129.841 74.4776 139.128 83.054 149.514 83.1255C153.357 83.1973 160.35 82.5811 161.309 81.5257C165.703 77.1976 167.97 78.9851 170.483 81.1155L180.353 80.9924C181.937 80.6871 184.207 81.5691 183.753 77.5876L183.425 41.4884C183.413 34.4842 174.309 23.283 153.446 23.4388ZM162.927 54.1847C168.15 54.1191 169.007 55.4019 169.193 56.3588L169.357 62.1019C169.186 67.7587 166.845 69.3878 164.852 70.4703C159.664 72.6555 152.019 71.3849 149.289 69.814C145.773 68.0075 144.043 63.1626 146.012 59.6406C148.206 55.5507 154.186 54.1878 161.821 54.2257C162.209 54.2089 162.579 54.1891 162.927 54.1847Z" fill="url(#paint16_radial_1_30)"/>
<path d="M153.446 23.4388C150.465 23.4611 147.249 23.7287 143.78 24.2592C142.269 24.7096 141.312 25.4535 141.651 26.8846L142.306 33.7763C142.434 35.3594 143.271 35.9112 144.599 35.7453C149.541 34.813 155.016 34.7491 159.589 35.4172C164.896 35.8565 171.949 46.1252 160.818 46.0828C142.877 45.5205 130.097 49.804 129.835 66.9219C129.841 74.4776 139.128 83.054 149.514 83.1255C153.357 83.1973 160.35 82.5811 161.309 81.5257C165.703 77.1976 167.97 78.9851 170.483 81.1155L180.353 80.9924C181.937 80.6871 184.207 81.5691 183.753 77.5876L183.425 41.4884C183.413 34.4842 174.309 23.283 153.446 23.4388ZM162.927 54.1847C168.15 54.1191 169.007 55.4019 169.193 56.3588L169.357 62.1019C169.186 67.7587 166.845 69.3878 164.852 70.4703C159.664 72.6555 152.019 71.3849 149.289 69.814C145.773 68.0075 144.043 63.1626 146.012 59.6406C148.206 55.5507 154.186 54.1878 161.821 54.2257C162.209 54.2089 162.579 54.1891 162.927 54.1847Z" fill="url(#paint17_radial_1_30)"/>
<path d="M153.446 23.4388C150.465 23.4611 147.249 23.7287 143.78 24.2592C142.269 24.7096 141.312 25.4535 141.651 26.8846L142.306 33.7763C142.434 35.3594 143.271 35.9112 144.599 35.7453C149.541 34.813 155.016 34.7491 159.589 35.4172C164.896 35.8565 171.949 46.1252 160.818 46.0828C142.877 45.5205 130.097 49.804 129.835 66.9219C129.841 74.4776 139.128 83.054 149.514 83.1255C153.357 83.1973 160.35 82.5811 161.309 81.5257C165.703 77.1976 167.97 78.9851 170.483 81.1155L180.353 80.9924C181.937 80.6871 184.207 81.5691 183.753 77.5876L183.425 41.4884C183.413 34.4842 174.309 23.283 153.446 23.4388ZM162.927 54.1847C168.15 54.1191 169.007 55.4019 169.193 56.3588L169.357 62.1019C169.186 67.7587 166.845 69.3878 164.852 70.4703C159.664 72.6555 152.019 71.3849 149.289 69.814C145.773 68.0075 144.043 63.1626 146.012 59.6406C148.206 55.5507 154.186 54.1878 161.821 54.2257C162.209 54.2089 162.579 54.1891 162.927 54.1847Z" fill="url(#paint18_radial_1_30)"/>
<path d="M153.446 23.4388C150.465 23.4611 147.249 23.7287 143.78 24.2592C142.269 24.7096 141.312 25.4535 141.651 26.8846L142.306 33.7763C142.434 35.3594 143.271 35.9112 144.599 35.7453C149.541 34.813 155.016 34.7491 159.589 35.4172C164.896 35.8565 171.949 46.1252 160.818 46.0828C142.877 45.5205 130.097 49.804 129.835 66.9219C129.841 74.4776 139.128 83.054 149.514 83.1255C153.357 83.1973 160.35 82.5811 161.309 81.5257C165.703 77.1976 167.97 78.9851 170.483 81.1155L180.353 80.9924C181.937 80.6871 184.207 81.5691 183.753 77.5876L183.425 41.4884C183.413 34.4842 174.309 23.283 153.446 23.4388ZM162.927 54.1847C168.15 54.1191 169.007 55.4019 169.193 56.3588L169.357 62.1019C169.186 67.7587 166.845 69.3878 164.852 70.4703C159.664 72.6555 152.019 71.3849 149.289 69.814C145.773 68.0075 144.043 63.1626 146.012 59.6406C148.206 55.5507 154.186 54.1878 161.821 54.2257C162.209 54.2089 162.579 54.1891 162.927 54.1847Z" fill="url(#paint19_radial_1_30)"/>
<path d="M153.446 23.4388C150.465 23.4611 147.249 23.7287 143.78 24.2592C142.269 24.7096 141.312 25.4535 141.651 26.8846L142.306 33.7763C142.434 35.3594 143.271 35.9112 144.599 35.7453C149.541 34.813 155.016 34.7491 159.589 35.4172C164.896 35.8565 171.949 46.1252 160.818 46.0828C142.877 45.5205 130.097 49.804 129.835 66.9219C129.841 74.4776 139.128 83.054 149.514 83.1255C153.357 83.1973 160.35 82.5811 161.309 81.5257C165.703 77.1976 167.97 78.9851 170.483 81.1155L180.353 80.9924C181.937 80.6871 184.207 81.5691 183.753 77.5876L183.425 41.4884C183.413 34.4842 174.309 23.283 153.446 23.4388ZM162.927 54.1847C168.15 54.1191 169.007 55.4019 169.193 56.3588L169.357 62.1019C169.186 67.7587 166.845 69.3878 164.852 70.4703C159.664 72.6555 152.019 71.3849 149.289 69.814C145.773 68.0075 144.043 63.1626 146.012 59.6406C148.206 55.5507 154.186 54.1878 161.821 54.2257C162.209 54.2089 162.579 54.1891 162.927 54.1847Z" fill="url(#paint20_radial_1_30)"/>
<path d="M153.446 23.4388C150.465 23.4611 147.249 23.7287 143.78 24.2592C142.269 24.7096 141.312 25.4535 141.651 26.8846L142.306 33.7763C142.434 35.3594 143.271 35.9112 144.599 35.7453C149.541 34.813 155.016 34.7491 159.589 35.4172C164.896 35.8565 171.949 46.1252 160.818 46.0828C142.877 45.5205 130.097 49.804 129.835 66.9219C129.841 74.4776 139.128 83.054 149.514 83.1255C153.357 83.1973 160.35 82.5811 161.309 81.5257C165.703 77.1976 167.97 78.9851 170.483 81.1155L180.353 80.9924C181.937 80.6871 184.207 81.5691 183.753 77.5876L183.425 41.4884C183.413 34.4842 174.309 23.283 153.446 23.4388ZM162.927 54.1847C168.15 54.1191 169.007 55.4019 169.193 56.3588L169.357 62.1019C169.186 67.7587 166.845 69.3878 164.852 70.4703C159.664 72.6555 152.019 71.3849 149.289 69.814C145.773 68.0075 144.043 63.1626 146.012 59.6406C148.206 55.5507 154.186 54.1878 161.821 54.2257C162.209 54.2089 162.579 54.1891 162.927 54.1847Z" fill="url(#paint21_radial_1_30)"/>
<path d="M153.446 23.4388C150.465 23.4611 147.249 23.7287 143.78 24.2592C142.269 24.7096 141.312 25.4535 141.651 26.8846L142.306 33.7763C142.434 35.3594 143.271 35.9112 144.599 35.7453C149.541 34.813 155.016 34.7491 159.589 35.4172C164.896 35.8565 171.949 46.1252 160.818 46.0828C142.877 45.5205 130.097 49.804 129.835 66.9219C129.841 74.4776 139.128 83.054 149.514 83.1255C153.357 83.1973 160.35 82.5811 161.309 81.5257C165.703 77.1976 167.97 78.9851 170.483 81.1155L180.353 80.9924C181.937 80.6871 184.207 81.5691 183.753 77.5876L183.425 41.4884C183.413 34.4842 174.309 23.283 153.446 23.4388ZM162.927 54.1847C168.15 54.1191 169.007 55.4019 169.193 56.3588L169.357 62.1019C169.186 67.7587 166.845 69.3878 164.852 70.4703C159.664 72.6555 152.019 71.3849 149.289 69.814C145.773 68.0075 144.043 63.1626 146.012 59.6406C148.206 55.5507 154.186 54.1878 161.821 54.2257C162.209 54.2089 162.579 54.1891 162.927 54.1847Z" fill="url(#paint22_radial_1_30)"/>
<path d="M153.446 23.4388C150.465 23.4611 147.249 23.7287 143.78 24.2592C142.269 24.7096 141.312 25.4535 141.651 26.8846L142.306 33.7763C142.434 35.3594 143.271 35.9112 144.599 35.7453C149.541 34.813 155.016 34.7491 159.589 35.4172C164.896 35.8565 171.949 46.1252 160.818 46.0828C142.877 45.5205 130.097 49.804 129.835 66.9219C129.841 74.4776 139.128 83.054 149.514 83.1255C153.357 83.1973 160.35 82.5811 161.309 81.5257C165.703 77.1976 167.97 78.9851 170.483 81.1155L180.353 80.9924C181.937 80.6871 184.207 81.5691 183.753 77.5876L183.425 41.4884C183.413 34.4842 174.309 23.283 153.446 23.4388ZM162.927 54.1847C168.15 54.1191 169.007 55.4019 169.193 56.3588L169.357 62.1019C169.186 67.7587 166.845 69.3878 164.852 70.4703C159.664 72.6555 152.019 71.3849 149.289 69.814C145.773 68.0075 144.043 63.1626 146.012 59.6406C148.206 55.5507 154.186 54.1878 161.821 54.2257C162.209 54.2089 162.579 54.1891 162.927 54.1847Z" fill="url(#paint23_radial_1_30)"/>
<path d="M153.446 23.4388C150.465 23.4611 147.249 23.7287 143.78 24.2592C142.269 24.7096 141.312 25.4535 141.651 26.8846L142.306 33.7763C142.434 35.3594 143.271 35.9112 144.599 35.7453C149.541 34.813 155.016 34.7491 159.589 35.4172C164.896 35.8565 171.949 46.1252 160.818 46.0828C142.877 45.5205 130.097 49.804 129.835 66.9219C129.841 74.4776 139.128 83.054 149.514 83.1255C153.357 83.1973 160.35 82.5811 161.309 81.5257C165.703 77.1976 167.97 78.9851 170.483 81.1155L180.353 80.9924C181.937 80.6871 184.207 81.5691 183.753 77.5876L183.425 41.4884C183.413 34.4842 174.309 23.283 153.446 23.4388ZM162.927 54.1847C168.15 54.1191 169.007 55.4019 169.193 56.3588L169.357 62.1019C169.186 67.7587 166.845 69.3878 164.852 70.4703C159.664 72.6555 152.019 71.3849 149.289 69.814C145.773 68.0075 144.043 63.1626 146.012 59.6406C148.206 55.5507 154.186 54.1878 161.821 54.2257C162.209 54.2089 162.579 54.1891 162.927 54.1847Z" fill="url(#paint24_radial_1_30)"/>
<path d="M153.446 23.4388C150.465 23.4611 147.249 23.7287 143.78 24.2592C142.269 24.7096 141.312 25.4535 141.651 26.8846L142.306 33.7763C142.434 35.3594 143.271 35.9112 144.599 35.7453C149.541 34.813 155.016 34.7491 159.589 35.4172C164.896 35.8565 171.949 46.1252 160.818 46.0828C142.877 45.5205 130.097 49.804 129.835 66.9219C129.841 74.4776 139.128 83.054 149.514 83.1255C153.357 83.1973 160.35 82.5811 161.309 81.5257C165.703 77.1976 167.97 78.9851 170.483 81.1155L180.353 80.9924C181.937 80.6871 184.207 81.5691 183.753 77.5876L183.425 41.4884C183.413 34.4842 174.309 23.283 153.446 23.4388ZM162.927 54.1847C168.15 54.1191 169.007 55.4019 169.193 56.3588L169.357 62.1019C169.186 67.7587 166.845 69.3878 164.852 70.4703C159.664 72.6555 152.019 71.3849 149.289 69.814C145.773 68.0075 144.043 63.1626 146.012 59.6406C148.206 55.5507 154.186 54.1878 161.821 54.2257C162.209 54.2089 162.579 54.1891 162.927 54.1847Z" fill="url(#paint25_radial_1_30)"/>
<path d="M155.527 24.731C149.951 24.6699 145.05 25.1905 144.176 25.4284L144.806 33.0379C147.307 32.8016 158.9 32.2567 161.671 33.5507C172.039 38.3869 174.523 47.3807 163.278 47.9904L148.102 49.3236C130.246 51.1749 128.652 70.559 139.578 77.1774C147.235 81.9183 160.054 80.8133 161.895 79.0234C168.081 73.1284 169.95 79.1402 171.965 78.9208L182.218 78.7362L182.381 46.0828C182.832 37.8274 177.427 29.0715 165.597 25.654C162.47 25.0018 158.873 24.7676 155.527 24.731ZM161.651 52.5233C165.083 52.474 167.915 52.7087 168.812 53.036C169.95 53.4521 170.32 54.3576 170.419 55.2512V64.5222C170.529 69.8691 161.563 75.7424 153.513 74.634C142.261 72.9548 140.142 61.8537 145.681 56.1742C148.544 53.4976 155.93 52.6054 161.651 52.5233Z" fill="#00FFFF"/>
<path d="M97.3772 9.49695C79.0494 9.49695 64.2036 24.2571 64.2036 42.4743C64.2036 60.6915 79.0494 75.4724 97.3772 75.4724C109.832 75.4724 114.261 71.9196 115.766 61.832C110.319 65.3306 105.94 68.7362 98.6514 68.7362C85.1601 68.7362 72.9475 55.8842 72.9475 42.4743C72.9475 29.0645 83.8859 18.2056 97.3772 18.2056C104.67 18.2056 110.143 20.8904 116.257 24.2038C114.755 14.1052 109.84 9.49695 97.3772 9.49695Z" fill="#00108F"/>
<path d="M113.69 22.9488C116.987 25.4269 117.236 24.4535 118.577 23.4041L127.1 16.9156C128.447 15.8152 127.439 14.7148 126.418 13.6144C115.593 2.05551 102.988 0.985272 92.551 1.20652C81.847 1.22492 67.4652 7.94227 59.5929 19.0784C48.5545 36.7563 51.265 51.9304 60.1612 65.978C67.8211 77.5178 84.0473 86.9804 103.12 83.9637C112.403 82.1818 121.113 77.5347 126.418 72.3527C127.535 71.461 127.443 70.4839 126.646 69.8483L118.122 62.5629C116.524 61.183 115.357 61.7902 114.258 62.4491C104.068 67.8633 94.0981 73.6349 79.4814 64.2705C71.9322 59.0956 64.2233 44.7131 71.7533 29.5511C79.4689 17.3103 93.8782 9.74753 113.69 22.9488Z" fill="#3A48EE"/>
<path d="M113.69 22.9488C116.987 25.4269 117.236 24.4535 118.577 23.4041L127.1 16.9156C128.447 15.8152 127.439 14.7148 126.418 13.6144C115.593 2.05551 102.988 0.985272 92.551 1.20652C81.847 1.22492 67.4652 7.94227 59.5929 19.0784C48.5545 36.7563 51.265 51.9304 60.1612 65.978C67.8211 77.5178 84.0473 86.9804 103.12 83.9637C112.403 82.1818 121.113 77.5347 126.418 72.3527C127.535 71.461 127.443 70.4839 126.646 69.8483L118.122 62.5629C116.524 61.183 115.357 61.7902 114.258 62.4491C104.068 67.8633 94.0981 73.6349 79.4814 64.2705C71.9322 59.0956 64.2233 44.7131 71.7533 29.5511C79.4689 17.3103 93.8782 9.74753 113.69 22.9488Z" fill="url(#paint26_radial_1_30)"/>
<path d="M113.69 22.9488C116.987 25.4269 117.236 24.4535 118.577 23.4041L127.1 16.9156C128.447 15.8152 127.439 14.7148 126.418 13.6144C115.593 2.05551 102.988 0.985272 92.551 1.20652C81.847 1.22492 67.4652 7.94227 59.5929 19.0784C48.5545 36.7563 51.265 51.9304 60.1612 65.978C67.8211 77.5178 84.0473 86.9804 103.12 83.9637C112.403 82.1818 121.113 77.5347 126.418 72.3527C127.535 71.461 127.443 70.4839 126.646 69.8483L118.122 62.5629C116.524 61.183 115.357 61.7902 114.258 62.4491C104.068 67.8633 94.0981 73.6349 79.4814 64.2705C71.9322 59.0956 64.2233 44.7131 71.7533 29.5511C79.4689 17.3103 93.8782 9.74753 113.69 22.9488Z" fill="url(#paint27_radial_1_30)"/>
<path d="M113.69 22.9488C116.987 25.4269 117.236 24.4535 118.577 23.4041L127.1 16.9156C128.447 15.8152 127.439 14.7148 126.418 13.6144C115.593 2.05551 102.988 0.985272 92.551 1.20652C81.847 1.22492 67.4652 7.94227 59.5929 19.0784C48.5545 36.7563 51.265 51.9304 60.1612 65.978C67.8211 77.5178 84.0473 86.9804 103.12 83.9637C112.403 82.1818 121.113 77.5347 126.418 72.3527C127.535 71.461 127.443 70.4839 126.646 69.8483L118.122 62.5629C116.524 61.183 115.357 61.7902 114.258 62.4491C104.068 67.8633 94.0981 73.6349 79.4814 64.2705C71.9322 59.0956 64.2233 44.7131 71.7533 29.5511C79.4689 17.3103 93.8782 9.74753 113.69 22.9488Z" fill="url(#paint28_radial_1_30)"/>
<path d="M113.69 22.9488C116.987 25.4269 117.236 24.4535 118.577 23.4041L127.1 16.9156C128.447 15.8152 127.439 14.7148 126.418 13.6144C115.593 2.05551 102.988 0.985272 92.551 1.20652C81.847 1.22492 67.4652 7.94227 59.5929 19.0784C48.5545 36.7563 51.265 51.9304 60.1612 65.978C67.8211 77.5178 84.0473 86.9804 103.12 83.9637C112.403 82.1818 121.113 77.5347 126.418 72.3527C127.535 71.461 127.443 70.4839 126.646 69.8483L118.122 62.5629C116.524 61.183 115.357 61.7902 114.258 62.4491C104.068 67.8633 94.0981 73.6349 79.4814 64.2705C71.9322 59.0956 64.2233 44.7131 71.7533 29.5511C79.4689 17.3103 93.8782 9.74753 113.69 22.9488Z" fill="url(#paint29_radial_1_30)"/>
<path d="M113.69 22.9488C116.987 25.4269 117.236 24.4535 118.577 23.4041L127.1 16.9156C128.447 15.8152 127.439 14.7148 126.418 13.6144C115.593 2.05551 102.988 0.985272 92.551 1.20652C81.847 1.22492 67.4652 7.94227 59.5929 19.0784C48.5545 36.7563 51.265 51.9304 60.1612 65.978C67.8211 77.5178 84.0473 86.9804 103.12 83.9637C112.403 82.1818 121.113 77.5347 126.418 72.3527C127.535 71.461 127.443 70.4839 126.646 69.8483L118.122 62.5629C116.524 61.183 115.357 61.7902 114.258 62.4491C103.914 67.4455 94.0932 73.6339 79.4814 64.2705C71.9322 59.0956 64.2233 44.7131 71.7533 29.5511C79.4689 17.3103 93.8782 9.74753 113.69 22.9488Z" fill="url(#paint30_radial_1_30)"/>
<path d="M113.349 22.835C116.646 25.3131 116.895 24.3397 118.236 23.2903L126.759 16.8018C128.106 15.7014 127.098 14.601 126.077 13.5006C115.252 1.94168 102.647 0.871442 92.2101 1.09269C81.5061 1.11109 67.1242 7.82844 59.252 18.9646C48.2136 36.6425 50.924 51.8166 59.8202 65.8641C67.4801 77.4039 83.7064 86.8666 102.779 83.8499C112.062 82.068 120.772 77.4208 126.077 72.2388C127.194 71.3471 127.103 70.3701 126.305 69.7345L117.781 62.4491C116.183 61.0692 115.016 61.6764 113.917 62.3353C97.6632 66.5348 93.7523 73.5201 79.1405 64.1566C71.5913 58.9818 63.8823 44.5993 71.4124 29.4373C79.128 17.1964 93.5373 9.6337 113.349 22.835Z" fill="url(#paint31_radial_1_30)"/>
<path d="M113.703 22.9263C117 25.4044 117.249 24.4311 118.59 23.3816L127.113 16.8931C128.46 15.7927 127.452 14.6923 126.432 13.5919C115.606 2.03305 103.001 0.962811 92.5643 1.18406C81.8602 1.20246 67.4784 7.91981 59.6061 19.056C48.5678 36.7339 51.2782 51.908 60.1744 65.9555C67.8343 77.4953 84.0606 86.9579 103.134 83.9412C112.416 82.1593 121.126 77.5122 126.432 72.3302C127.548 71.4385 127.457 70.4614 126.659 69.8258L118.135 62.5405C116.537 61.1605 115.37 61.7677 114.271 62.4266C100.631 68.9028 94.1064 73.6115 79.4947 64.248C71.9455 59.0731 64.2365 44.6907 71.7666 29.5287C79.4821 17.2878 93.8915 9.72506 113.703 22.9263Z" fill="url(#paint32_radial_1_30)"/>
<path d="M95.3945 2.38461C72.422 2.38461 53.8046 20.3728 53.8046 42.5655C53.8046 64.7581 72.422 82.7464 95.3945 82.7464C106.562 82.7464 116.695 78.486 124.165 71.5679L115.667 62.7277C110.427 67.6491 103.277 70.6859 95.3945 70.6859C79.3263 70.6859 66.2959 58.0882 66.2959 42.5655C66.2959 27.0428 79.3263 14.4655 95.3945 14.4655C103.339 14.4655 110.539 17.5416 115.79 22.5263L125.476 14.8552C117.902 7.18282 107.237 2.38461 95.3945 2.38461Z" fill="#00FFFF"/>
<path d="M221.782 45.2016L215.353 45.2596C212.725 41.3766 209.548 40.7942 206.484 39.5597C210.979 39.2543 214.701 38.1749 221.89 45.1871L221.84 45.1435" fill="#040F9A"/>
<path d="M221.854 45.1943L215.172 45.1871C212.544 41.3041 209.548 40.7942 206.484 39.5597C210.979 39.2543 214.701 38.1749 221.89 45.1871L221.782 45.071" fill="url(#paint33_linear_1_30)"/>
<path d="M207.448 26.1565C195.992 24.8054 187.26 31.8723 187.226 43.2407L187.313 78.9437C187.405 79.6514 191.615 81.4694 192.927 81.5047L196.16 79.1078L198.125 37.9219L207.448 26.1565Z" fill="#0011A2"/>
<path d="M207.448 26.1565C195.992 24.8054 187.26 31.8723 187.226 43.2407L187.313 78.9437C187.405 79.6514 191.615 81.4694 192.927 81.5047L196.16 79.1078L198.125 37.9219L207.448 26.1565Z" fill="url(#paint34_radial_1_30)"/>
<path d="M207.448 26.1565C195.992 24.8054 187.26 31.8723 187.226 43.2407L187.313 78.9437C187.405 79.6514 191.615 81.4694 192.927 81.5047L196.16 79.1078L198.125 37.9219L207.448 26.1565Z" fill="url(#paint35_radial_1_30)"/>
<path d="M204.19 79.0699C204.192 80.9576 203.825 81.5668 201.935 81.5815L193.104 81.5405C192.263 81.3818 190.975 81.214 191.019 79.009L191.251 43.3886C190.457 33.6948 198.952 26.9988 206.078 25.9845C215.877 25.0791 221.644 29.409 224.857 31.7039C225.442 32.0927 225.975 33.2258 225.539 34.4545L224.033 43.3886C223.584 45.7089 221.129 45.7057 219.4 44.1809C214.927 39.6618 211.681 39.0722 209.69 39.6687C208.111 39.9995 204.368 41.8941 204.32 46.0713L204.19 79.0699Z" fill="#0B1E9F"/>
<path d="M204.19 79.0699C204.192 80.9576 203.825 81.5668 201.935 81.5815L193.104 81.5405C192.263 81.3818 190.975 81.214 191.019 79.009L191.251 43.3886C190.457 33.6948 198.952 26.9988 206.078 25.9845C215.877 25.0791 221.644 29.409 224.857 31.7039C225.442 32.0927 225.975 33.2258 225.539 34.4545L224.033 43.3886C223.584 45.7089 221.129 45.7057 219.4 44.1809C214.927 39.6618 211.681 39.0722 209.69 39.6687C208.111 39.9995 204.368 41.8941 204.32 46.0713L204.19 79.0699Z" fill="url(#paint36_linear_1_30)"/>
<path d="M204.19 79.0699C204.192 80.9576 203.825 81.5668 201.935 81.5815L193.104 81.5405C192.263 81.3818 190.975 81.214 191.019 79.009L191.251 43.3886C190.457 33.6948 198.952 26.9988 206.078 25.9845C215.877 25.0791 221.644 29.409 224.857 31.7039C225.442 32.0927 225.975 33.2258 225.539 34.4545L224.033 43.3886C223.584 45.7089 221.129 45.7057 219.4 44.1809C214.927 39.6618 211.681 39.0722 209.69 39.6687C208.111 39.9995 204.368 41.8941 204.32 46.0713L204.19 79.0699Z" fill="url(#paint37_radial_1_30)"/>
<path d="M204.19 79.0699C204.192 80.9576 203.825 81.5668 201.935 81.5815L193.104 81.5405C192.263 81.3818 190.975 81.214 191.019 79.009L191.251 43.3886C190.457 33.6948 198.952 26.9988 206.078 25.9845C215.877 25.0791 221.644 29.409 224.857 31.7039C225.442 32.0927 225.975 33.2258 225.539 34.4545L224.033 43.3886C223.584 45.7089 221.129 45.7057 219.4 44.1809C214.927 39.6618 211.681 39.0722 209.69 39.6687C208.111 39.9995 204.368 41.8941 204.32 46.0713L204.19 79.0699Z" fill="url(#paint38_radial_1_30)"/>
<path d="M204.19 79.0699C204.192 80.9576 203.825 81.5668 201.935 81.5815L193.104 81.5405C192.263 81.3818 190.975 81.214 191.019 79.009L191.251 43.3886C190.457 33.6948 198.952 26.9988 206.078 25.9845C215.877 25.0791 221.644 29.409 224.857 31.7039C225.442 32.0927 225.975 33.2258 225.539 34.4545L224.033 43.3886C223.584 45.7089 221.129 45.7057 219.4 44.1809C214.927 39.6618 211.681 39.0722 209.69 39.6687C208.111 39.9995 204.368 41.8941 204.32 46.0713L204.19 79.0699Z" fill="url(#paint39_radial_1_30)"/>
<path d="M204.19 79.0699C204.192 80.9576 203.825 81.5668 201.935 81.5815L193.104 81.5405C192.263 81.3818 190.975 81.214 191.019 79.009L191.251 43.3886C190.457 33.6948 198.952 26.9988 206.078 25.9845C215.877 25.0791 221.644 29.409 224.857 31.7039C225.442 32.0927 225.975 33.2258 225.539 34.4545L224.033 43.3886C223.584 45.7089 221.129 45.7057 219.4 44.1809C214.927 39.6618 211.681 39.0722 209.69 39.6687C208.111 39.9995 204.368 41.8941 204.32 46.0713L204.19 79.0699Z" fill="url(#paint40_radial_1_30)"/>
<path d="M204.19 79.0699C204.192 80.9576 203.825 81.5668 201.935 81.5815L193.104 81.5405C192.263 81.3818 190.975 81.214 191.019 79.009L191.251 43.3886C190.457 33.6948 198.952 26.9988 206.078 25.9845C215.877 25.0791 221.644 29.409 224.857 31.7039C225.442 32.0927 225.975 33.2258 225.539 34.4545L224.033 43.3886C223.584 45.7089 221.129 45.7057 219.4 44.1809C214.927 39.6618 211.681 39.0722 209.69 39.6687C208.111 39.9995 204.368 41.8941 204.32 46.0713L204.19 79.0699Z" fill="url(#paint41_radial_1_30)"/>
<path d="M202.14 79.7051V47.5357C202.663 36.4579 212.599 36.5034 215.345 38.5141L222.18 42.9062L223.917 34.2406C224.011 33.0086 220.11 31.3125 217.141 29.8485C212.437 27.486 204.244 27.1027 197.854 33.8845C194.135 37.149 194.071 42.0015 193.799 47.5357V79.7051H202.14Z" fill="#00FFFF"/>
<path d="M234.512 0.622833L226.983 1.78311C225.781 2.34533 225.454 2.76842 225.477 4.33571V53.5312C225.683 63.9009 227.478 77.4436 240.767 79.2893L254.205 79.3473L247.834 71.7475L239.725 65.366L238.914 8.86077L234.512 0.622833Z" fill="#00084E"/>
<path d="M234.512 0.622833L226.983 1.78311C225.781 2.34533 225.454 2.76842 225.477 4.33571V53.5312C225.683 63.9009 226.841 76.5154 240.941 79.1733L254.378 79.4633L247.834 71.7475L239.725 65.366L238.914 8.86077L234.512 0.622833Z" fill="url(#paint42_radial_1_30)"/>
<path d="M255.448 68.858L255.442 78.5281C255.458 79.3712 254.546 79.5778 253.567 79.5794C237.873 78.9525 232.338 66.9989 232.601 58.8105L232.485 2.42126C232.332 0.912285 233.085 0.7661 233.643 0.680847L243.013 0.907071C243.495 0.955588 243.998 1.74574 243.953 2.53728V54.0534C244.221 59.7712 247.581 66.8847 254.82 68.2895C255.195 68.2409 255.386 68.6524 255.448 68.858Z" fill="#1223A5"/>
<path d="M255.448 68.858L255.442 78.5281C255.458 79.3712 254.546 79.5778 253.567 79.5794C237.873 78.9525 232.338 66.9989 232.601 58.8105L232.485 2.42126C232.332 0.912285 233.085 0.7661 233.643 0.680847L243.013 0.907071C243.495 0.955588 243.998 1.74574 243.953 2.53728V54.0534C244.221 59.7712 247.581 66.8847 254.82 68.2895C255.195 68.2409 255.386 68.6524 255.448 68.858Z" fill="url(#paint43_radial_1_30)"/>
<path d="M254.494 69.9491L254.263 77.955C243.951 77.6738 234.839 72.2018 234.57 59.3906L234.802 2.53729L242.829 2.61169L242.331 55.7938C242.702 63.3892 250.315 69.509 254.494 69.9491Z" fill="#00FFFF"/>
<path d="M272.42 51.4606L279.219 32.7547C280.059 31.1407 280.218 29.373 282.412 28.7677L296.536 27.9721L279.874 67.0489L272.42 51.4606Z" fill="#000850"/>
<path d="M259.956 109.099L250.878 107.496C249.179 106.74 248.954 105.589 249.567 104.215L261.69 73.3663C262.331 71.8215 262.076 71.0309 261.286 69.4282L247.274 30.0472C247.284 29.3842 246.652 28.6568 248.085 28.1362L258.14 26.9179L275.778 71.3972L259.956 109.099Z" fill="#00084D"/>
<path d="M259.956 109.099L250.878 107.496C249.179 106.74 248.954 105.589 249.567 104.215L261.69 73.3663C262.331 71.8215 262.076 71.0309 261.286 69.4282L247.274 30.0472C247.284 29.3842 246.652 28.6568 248.085 28.1362L258.14 26.9179L275.778 71.3972L259.956 109.099Z" fill="url(#paint44_linear_1_30)"/>
<path d="M258.997 107.393L270.349 76.1816C271.337 72.3841 270.672 69.7889 270.118 68.4078L256.101 29.4226C255.81 28.5793 255.484 27.0104 257.286 26.9931L264.21 27.1021C265.79 27.2051 266.805 30.5708 267.222 31.7432L277.3 61.4461C277.415 61.7275 277.531 62.1143 277.647 61.4461L289.347 29.7707C289.577 28.9165 289.845 28.1395 290.505 28.1463L297.326 28.0162C297.951 28.0669 298.824 27.9105 297.803 31.8592L271.16 105.188C270.302 107.125 269.362 109.166 267.222 109.133L260.626 109.154C259.24 109.174 258.403 108.316 258.997 107.393Z" fill="#8296FE"/>
<path d="M258.997 107.393L270.349 76.1816C271.337 72.3841 270.672 69.7889 270.118 68.4078L256.101 29.4226C255.81 28.5793 255.484 27.0104 257.286 26.9931L264.21 27.1021C265.79 27.2051 266.805 30.5708 267.222 31.7432L277.3 61.4461C277.415 61.7275 277.531 62.1143 277.647 61.4461L289.347 29.7707C289.577 28.9165 289.845 28.1395 290.505 28.1463L297.326 28.0162C297.951 28.0669 298.824 27.9105 297.803 31.8592L271.16 105.188C270.302 107.125 269.362 109.166 267.222 109.133L260.626 109.154C259.24 109.174 258.403 108.316 258.997 107.393Z" fill="url(#paint45_radial_1_30)"/>
<path d="M258.997 107.393L270.349 76.1816C271.337 72.3841 270.672 69.7889 270.118 68.4078L256.101 29.4226C255.81 28.5793 255.484 27.0104 257.286 26.9931L264.21 27.1021C265.79 27.2051 266.805 30.5708 267.222 31.7432L277.3 61.4461C277.415 61.7275 277.531 62.1143 277.647 61.4461L289.347 29.7707C289.577 28.9165 289.845 28.1395 290.505 28.1463L297.326 28.0162C297.951 28.0669 298.824 27.9105 297.803 31.8592L271.16 105.188C270.302 107.125 269.362 109.166 267.222 109.133L260.626 109.154C259.24 109.174 258.403 108.316 258.997 107.393Z" fill="url(#paint46_radial_1_30)"/>
<path d="M258.997 107.393L270.349 76.1816C271.337 72.3841 270.672 69.7889 270.118 68.4078L256.101 29.4226C255.81 28.5793 255.484 27.0104 257.286 26.9931L264.21 27.1021C265.79 27.2051 266.805 30.5708 267.222 31.7432L277.3 61.4461C277.415 61.7275 277.531 62.1143 277.647 61.4461L289.347 29.7707C289.577 28.9165 289.845 28.1395 290.505 28.1463L297.326 28.0162C297.951 28.0669 298.824 27.9105 297.803 31.8592L271.16 105.188C270.302 107.125 269.362 109.166 267.222 109.133L260.626 109.154C259.24 109.174 258.403 108.316 258.997 107.393Z" fill="url(#paint47_linear_1_30)"/>
<path d="M258.997 107.393L270.349 76.1816C271.337 72.3841 270.672 69.7889 270.118 68.4078L256.101 29.4226C255.81 28.5793 255.484 27.0104 257.286 26.9931L264.21 27.1021C265.79 27.2051 266.805 30.5708 267.222 31.7432L277.3 61.4461C277.415 61.7275 277.531 62.1143 277.647 61.4461L289.347 29.7707C289.577 28.9165 289.845 28.1395 290.505 28.1463L297.326 28.0162C297.951 28.0669 298.824 27.9105 297.803 31.8592L271.16 105.188C270.302 107.125 269.362 109.166 267.222 109.133L260.626 109.154C259.24 109.174 258.403 108.316 258.997 107.393Z" fill="url(#paint48_linear_1_30)"/>
<path d="M258.997 107.393L270.349 76.1816C271.337 72.3841 270.672 69.7889 270.118 68.4078L256.101 29.4226C255.81 28.5793 255.484 27.0104 257.286 26.9931L264.21 27.1021C265.79 27.2051 266.805 30.5708 267.222 31.7432L277.3 61.4461C277.415 61.7275 277.531 62.1143 277.647 61.4461L289.347 29.7707C289.577 28.9165 289.845 28.1395 290.505 28.1463L297.326 28.0162C297.951 28.0669 298.824 27.9105 297.803 31.8592L271.16 105.188C270.302 107.125 269.362 109.166 267.222 109.133L260.626 109.154C259.24 109.174 258.403 108.316 258.997 107.393Z" fill="url(#paint49_linear_1_30)"/>
<path d="M258.997 107.393L270.349 76.1816C271.337 72.3841 270.672 69.7889 270.118 68.4078L256.101 29.4226C255.81 28.5793 255.484 27.0104 257.286 26.9931L264.21 27.1021C265.79 27.2051 266.805 30.5708 267.222 31.7432L277.3 61.4461C277.415 61.7275 277.531 62.1143 277.647 61.4461L289.347 29.7707C289.577 28.9165 289.845 28.1395 290.505 28.1463L297.326 28.0162C297.951 28.0669 298.824 27.9105 297.803 31.8592L271.16 105.188C270.302 107.125 269.362 109.166 267.222 109.133L260.626 109.154C259.24 109.174 258.403 108.316 258.997 107.393Z" fill="url(#paint50_radial_1_30)"/>
<path d="M258.997 107.393L270.349 76.1816C271.337 72.3841 270.672 69.7889 270.118 68.4078L256.101 29.4226C255.81 28.5793 255.484 27.0104 257.286 26.9931L264.21 27.1021C265.79 27.2051 266.805 30.5708 267.222 31.7432L277.3 61.4461C277.415 61.7275 277.531 62.1143 277.647 61.4461L289.347 29.7707C289.577 28.9165 289.845 28.1395 290.505 28.1463L297.326 28.0162C297.951 28.0669 298.824 27.9105 297.803 31.8592L271.16 105.188C270.302 107.125 269.362 109.166 267.222 109.133L260.626 109.154C259.24 109.174 258.403 108.316 258.997 107.393Z" fill="url(#paint51_radial_1_30)"/>
<path d="M258.997 107.393L270.349 76.1816C271.337 72.3841 270.672 69.7889 270.118 68.4078L256.101 29.4226C255.81 28.5793 255.484 27.0104 257.286 26.9931L264.21 27.1021C265.79 27.2051 266.805 30.5708 267.222 31.7432L277.3 61.4461C277.415 61.7275 277.531 62.1143 277.647 61.4461L289.347 29.7707C289.577 28.9165 289.845 28.1395 290.505 28.1463L297.326 28.0162C297.951 28.0669 298.824 27.9105 297.803 31.8592L271.16 105.188C270.302 107.125 269.362 109.166 267.222 109.133L260.626 109.154C259.24 109.174 258.403 108.316 258.997 107.393Z" fill="#8296FE"/>
<path d="M258.997 107.393L270.349 76.1816C271.337 72.3841 270.672 69.7889 270.118 68.4078L256.101 29.4226C255.81 28.5793 255.484 27.0104 257.286 26.9931L264.21 27.1021C265.79 27.2051 266.805 30.5708 267.222 31.7432L277.3 61.4461C277.415 61.7275 277.531 62.1143 277.647 61.4461L289.347 29.7707C289.577 28.9165 289.845 28.1395 290.505 28.1463L297.326 28.0162C297.951 28.0669 298.824 27.9105 297.803 31.8592L271.16 105.188C270.302 107.125 269.362 109.166 267.222 109.133L260.626 109.154C259.24 109.174 258.403 108.316 258.997 107.393Z" fill="url(#paint52_radial_1_30)"/>
<path d="M258.997 107.393L270.349 76.1816C271.337 72.3841 270.672 69.7889 270.118 68.4078L256.101 29.4226C255.81 28.5793 255.484 27.0104 257.286 26.9931L264.21 27.1021C265.79 27.2051 266.805 30.5708 267.222 31.7432L277.3 61.4461C277.415 61.7275 277.531 62.1143 277.647 61.4461L289.347 29.7707C289.577 28.9165 289.845 28.1395 290.505 28.1463L297.326 28.0162C297.951 28.0669 298.824 27.9105 297.803 31.8592L271.16 105.188C270.302 107.125 269.362 109.166 267.222 109.133L260.626 109.154C259.24 109.174 258.403 108.316 258.997 107.393Z" fill="url(#paint53_radial_1_30)"/>
<path d="M258.997 107.393L270.349 76.1816C271.337 72.3841 270.672 69.7889 270.118 68.4078L256.101 29.4226C255.81 28.5793 255.484 27.0104 257.286 26.9931L264.21 27.1021C265.79 27.2051 266.805 30.5708 267.222 31.7432L277.3 61.4461C277.415 61.7275 277.531 62.1143 277.647 61.4461L289.347 29.7707C289.577 28.9165 289.845 28.1395 290.505 28.1463L297.326 28.0162C297.951 28.0669 298.824 27.9105 297.803 31.8592L271.16 105.188C270.302 107.125 269.362 109.166 267.222 109.133L260.626 109.154C259.24 109.174 258.403 108.316 258.997 107.393Z" fill="url(#paint54_linear_1_30)"/>
<path d="M258.997 107.393L270.349 76.1816C271.337 72.3841 270.672 69.7889 270.118 68.4078L256.101 29.4226C255.81 28.5793 255.484 27.0104 257.286 26.9931L264.21 27.1021C265.79 27.2051 266.805 30.5708 267.222 31.7432L277.3 61.4461C277.415 61.7275 277.531 62.1143 277.647 61.4461L289.347 29.7707C289.577 28.9165 289.845 28.1395 290.505 28.1463L297.326 28.0162C297.951 28.0669 298.824 27.9105 297.803 31.8592L271.16 105.188C270.302 107.125 269.362 109.166 267.222 109.133L260.626 109.154C259.24 109.174 258.403 108.316 258.997 107.393Z" fill="url(#paint55_linear_1_30)"/>
<path d="M258.997 107.393L270.349 76.1816C271.337 72.3841 270.672 69.7889 270.118 68.4078L256.101 29.4226C255.81 28.5793 255.484 27.0104 257.286 26.9931L264.21 27.1021C265.79 27.2051 266.805 30.5708 267.222 31.7432L277.3 61.4461C277.415 61.7275 277.531 62.1143 277.647 61.4461L289.347 29.7707C289.577 28.9165 289.845 28.1395 290.505 28.1463L297.326 28.0162C297.951 28.0669 298.824 27.9105 297.803 31.8592L271.16 105.188C270.302 107.125 269.362 109.166 267.222 109.133L260.626 109.154C259.24 109.174 258.403 108.316 258.997 107.393Z" fill="url(#paint56_linear_1_30)"/>
<path d="M258.997 107.393L270.349 76.1816C271.337 72.3841 270.672 69.7889 270.118 68.4078L256.101 29.4226C255.81 28.5793 255.484 27.0104 257.286 26.9931L264.21 27.1021C265.79 27.2051 266.805 30.5708 267.222 31.7432L277.3 61.4461C277.415 61.7275 277.531 62.1143 277.647 61.4461L289.347 29.7707C289.577 28.9165 289.845 28.1395 290.505 28.1463L297.326 28.0162C297.951 28.0669 298.824 27.9105 297.803 31.8592L271.16 105.188C270.302 107.125 269.362 109.166 267.222 109.133L260.626 109.154C259.24 109.174 258.403 108.316 258.997 107.393Z" fill="url(#paint57_radial_1_30)"/>
<path d="M258.997 107.393L270.349 76.1816C271.337 72.3841 270.672 69.7889 270.118 68.4078L256.101 29.4226C255.81 28.5793 255.484 27.0104 257.286 26.9931L264.21 27.1021C265.79 27.2051 266.805 30.5708 267.222 31.7432L277.3 61.4461C277.415 61.7275 277.531 62.1143 277.647 61.4461L289.347 29.7707C289.577 28.9165 289.845 28.1395 290.505 28.1463L297.326 28.0162C297.951 28.0669 298.824 27.9105 297.803 31.8592L271.16 105.188C270.302 107.125 269.362 109.166 267.222 109.133L260.626 109.154C259.24 109.174 258.403 108.316 258.997 107.393Z" fill="url(#paint58_radial_1_30)"/>
<path d="M258.534 107.393L269.886 76.1816C270.874 72.3841 270.208 69.7889 269.654 68.4078L255.638 29.4226C255.347 28.5793 255.02 27.0104 256.823 26.9931L263.746 27.1021C265.327 27.2051 266.342 30.5708 266.758 31.7432L276.836 61.4461C276.952 61.7275 277.068 62.1143 277.184 61.4461L288.883 29.7707C289.113 28.9165 289.382 28.1395 290.042 28.1463L296.862 28.0162C297.488 28.0669 298.36 27.9105 297.34 31.8592L270.697 105.188C269.838 107.125 268.899 109.166 266.758 109.133L260.162 109.154C258.777 109.174 257.94 108.316 258.534 107.393Z" fill="url(#paint59_radial_1_30)"/>
<path d="M260.763 106.84L272.83 74.8431C273.989 71.4617 273.312 69.3064 272.666 67.131L258.905 28.7346H263.656C265.142 28.952 265.78 29.8416 266.277 31.6881L276.27 61.7161C277.223 64.2743 279.043 64.2857 279.956 61.7161L291.505 29.7191H297.239L270.209 104.051C269.639 105.356 269.444 106.957 266.604 107.004L260.763 106.84Z" fill="#00FFFF"/>
<defs>
<filter id="filter0_f_1_30" x="242.532" y="27.5031" width="42.7227" height="55.6103" filterUnits="userSpaceOnUse" color-interpolation-filters="sRGB">
<feFlood flood-opacity="0" result="BackgroundImageFix"/>
<feBlend mode="normal" in="SourceGraphic" in2="BackgroundImageFix" result="shape"/>
<feGaussianBlur stdDeviation="0.457931" result="effect1_foregroundBlur_1_30"/>
</filter>
<filter id="filter1_f_1_30" x="181.007" y="28.1256" width="39.1108" height="29.8235" filterUnits="userSpaceOnUse" color-interpolation-filters="sRGB">
<feFlood flood-opacity="0" result="BackgroundImageFix"/>
<feBlend mode="normal" in="SourceGraphic" in2="BackgroundImageFix" result="shape"/>
<feGaussianBlur stdDeviation="0.439937" result="effect1_foregroundBlur_1_30"/>
</filter>
<filter id="filter2_f_1_30" x="2.52774" y="16.4567" width="114.441" height="87.1866" filterUnits="userSpaceOnUse" color-interpolation-filters="sRGB">
<feFlood flood-opacity="0" result="BackgroundImageFix"/>
<feBlend mode="normal" in="SourceGraphic" in2="BackgroundImageFix" result="shape"/>
<feGaussianBlur stdDeviation="0.939172" result="effect1_foregroundBlur_1_30"/>
</filter>
<filter id="filter3_f_1_30" x="4.01099" y="18.5027" width="40.7738" height="27.6327" filterUnits="userSpaceOnUse" color-interpolation-filters="sRGB">
<feFlood flood-opacity="0" result="BackgroundImageFix"/>
<feBlend mode="normal" in="SourceGraphic" in2="BackgroundImageFix" result="shape"/>
<feGaussianBlur stdDeviation="0.419652" result="effect1_foregroundBlur_1_30"/>
</filter>
<filter id="filter4_f_1_30" x="105.846" y="26.4101" width="92.2891" height="71.9803" filterUnits="userSpaceOnUse" color-interpolation-filters="sRGB">
<feFlood flood-opacity="0" result="BackgroundImageFix"/>
<feBlend mode="normal" in="SourceGraphic" in2="BackgroundImageFix" result="shape"/>
<feGaussianBlur stdDeviation="0.723387" result="effect1_foregroundBlur_1_30"/>
</filter>
<filter id="filter5_f_1_30" x="71.8502" y="10.1933" width="49.4015" height="30.2161" filterUnits="userSpaceOnUse" color-interpolation-filters="sRGB">
<feFlood flood-opacity="0" result="BackgroundImageFix"/>
<feBlend mode="normal" in="SourceGraphic" in2="BackgroundImageFix" result="shape"/>
<feGaussianBlur stdDeviation="0.824443" result="effect1_foregroundBlur_1_30"/>
</filter>
<filter id="filter6_f_1_30" x="217.942" y="21.0601" width="28.3968" height="66.7282" filterUnits="userSpaceOnUse" color-interpolation-filters="sRGB">
<feFlood flood-opacity="0" result="BackgroundImageFix"/>
<feBlend mode="normal" in="SourceGraphic" in2="BackgroundImageFix" result="shape"/>
<feGaussianBlur stdDeviation="0.58328" result="effect1_foregroundBlur_1_30"/>
</filter>
<filter id="filter7_f_1_30" x="1.89981" y="58.4777" width="17.9771" height="48.0502" filterUnits="userSpaceOnUse" color-interpolation-filters="sRGB">
<feFlood flood-opacity="0" result="BackgroundImageFix"/>
<feBlend mode="normal" in="SourceGraphic" in2="BackgroundImageFix" result="shape"/>
<feGaussianBlur stdDeviation="1.10599" result="effect1_foregroundBlur_1_30"/>
</filter>
<linearGradient id="paint0_linear_1_30" x1="13.7188" y1="59.6339" x2="169.3" y2="64.1269" gradientUnits="userSpaceOnUse">
<stop stop-color="#96006B"/>
<stop offset="1" stop-color="#96006B" stop-opacity="0"/>
</linearGradient>
<radialGradient id="paint1_radial_1_30" cx="0" cy="0" r="1" gradientUnits="userSpaceOnUse" gradientTransform="translate(34.9175 14.7452) rotate(59.63) scale(2.09889 10.8484)">
<stop stop-color="#F6AE92"/>
<stop offset="1" stop-color="#F6AE92" stop-opacity="0"/>
</radialGradient>
<radialGradient id="paint2_radial_1_30" cx="0" cy="0" r="1" gradientUnits="userSpaceOnUse" gradientTransform="translate(37.0379 18.9335) rotate(75.0984) scale(2.09954 10.5029)">
<stop stop-color="#F6AE92"/>
<stop offset="1" stop-color="#F6AE92" stop-opacity="0"/>
</radialGradient>
<radialGradient id="paint3_radial_1_30" cx="0" cy="0" r="1" gradientUnits="userSpaceOnUse" gradientTransform="translate(36.5597 23.5812) rotate(76.2012) scale(2.09957 7.99304)">
<stop stop-color="#F6AE92"/>
<stop offset="1" stop-color="#F6AE92" stop-opacity="0"/>
</radialGradient>
<linearGradient id="paint4_linear_1_30" x1="25.3161" y1="22.9798" x2="36.6512" y2="18.9668" gradientUnits="userSpaceOnUse">
<stop stop-color="#4E2519"/>
<stop offset="1" stop-color="#4E2519" stop-opacity="0"/>
</linearGradient>
<linearGradient id="paint5_linear_1_30" x1="33.3291" y1="54.7619" x2="25.6009" y2="54.308" gradientUnits="userSpaceOnUse">
<stop stop-color="#9F3314"/>
<stop offset="1" stop-color="#9F3314" stop-opacity="0"/>
</linearGradient>
<radialGradient id="paint6_radial_1_30" cx="0" cy="0" r="1" gradientUnits="userSpaceOnUse" gradientTransform="translate(34.7407 81.1628) rotate(62.507) scale(5.30823 20.8412)">
<stop stop-color="#CC8066"/>
<stop offset="1" stop-color="#CC8066" stop-opacity="0"/>
</radialGradient>
<radialGradient id="paint7_radial_1_30" cx="0" cy="0" r="1" gradientUnits="userSpaceOnUse" gradientTransform="translate(31.104 72.3976) rotate(59.8692) scale(2.72269 12.4968)">
<stop stop-color="#CC8066"/>
<stop offset="1" stop-color="#CC8066" stop-opacity="0"/>
</radialGradient>
<radialGradient id="paint8_radial_1_30" cx="0" cy="0" r="1" gradientUnits="userSpaceOnUse" gradientTransform="translate(38.4912 33.1249) rotate(57.4578) scale(2.1182 12.4975)">
<stop stop-color="#CC8066"/>
<stop offset="1" stop-color="#CC8066" stop-opacity="0"/>
</radialGradient>
<radialGradient id="paint9_radial_1_30" cx="0" cy="0" r="1" gradientUnits="userSpaceOnUse" gradientTransform="translate(38.3775 38.9305) rotate(53.1366) scale(1.52045 12.499)">
<stop stop-color="#CC8066"/>
<stop offset="1" stop-color="#CC8066" stop-opacity="0"/>
</radialGradient>
<radialGradient id="paint10_radial_1_30" cx="0" cy="0" r="1" gradientUnits="userSpaceOnUse" gradientTransform="translate(34.3998 81.3905) rotate(60.6579) scale(3.48488 12.4965)">
<stop stop-color="#CC8066"/>
<stop offset="1" stop-color="#CC8066" stop-opacity="0"/>
</radialGradient>
<radialGradient id="paint11_radial_1_30" cx="0" cy="0" r="1" gradientUnits="userSpaceOnUse" gradientTransform="translate(38.8979 75.7073) rotate(116.223) scale(2.14353 4.54083)">
<stop stop-color="#872F15"/>
<stop offset="1" stop-color="#872F15" stop-opacity="0"/>
</radialGradient>
<radialGradient id="paint12_radial_1_30" cx="0" cy="0" r="1" gradientUnits="userSpaceOnUse" gradientTransform="translate(31.6924 81.8229) rotate(62.4274) scale(3.20448 12.157)">
<stop stop-color="#DEAD9C"/>
<stop offset="1" stop-color="#DEAD9C" stop-opacity="0"/>
</radialGradient>
<radialGradient id="paint13_radial_1_30" cx="0" cy="0" r="1" gradientUnits="userSpaceOnUse" gradientTransform="translate(152.811 34.7813) rotate(94.1184) scale(3.782 12.8953)">
<stop stop-color="#EDF9FE"/>
<stop offset="1" stop-color="#EDF9FE" stop-opacity="0"/>
</radialGradient>
<radialGradient id="paint14_radial_1_30" cx="0" cy="0" r="1" gradientUnits="userSpaceOnUse" gradientTransform="translate(157.387 35.9416) rotate(102.687) scale(3.78173 12.117)">
<stop stop-color="#EDF9FE"/>
<stop offset="1" stop-color="#EDF9FE" stop-opacity="0"/>
</radialGradient>
<radialGradient id="paint15_radial_1_30" cx="0" cy="0" r="1" gradientUnits="userSpaceOnUse" gradientTransform="translate(144.123 25.7312) rotate(113.331) scale(2.15446 10.6359)">
<stop stop-color="#EDF9FE"/>
<stop offset="1" stop-color="#EDF9FE" stop-opacity="0"/>
</radialGradient>
<radialGradient id="paint16_radial_1_30" cx="0" cy="0" r="1" gradientUnits="userSpaceOnUse" gradientTransform="translate(140.519 49.5239) rotate(71.8896) scale(4.87038 20.7706)">
<stop stop-color="#EDF9FE"/>
<stop offset="1" stop-color="#EDF9FE" stop-opacity="0"/>
</radialGradient>
<radialGradient id="paint17_radial_1_30" cx="0" cy="0" r="1" gradientUnits="userSpaceOnUse" gradientTransform="translate(140.519 49.5239) rotate(71.8896) scale(4.87038 20.7706)">
<stop stop-color="#EDF9FE"/>
<stop offset="1" stop-color="#EDF9FE" stop-opacity="0"/>
</radialGradient>
<radialGradient id="paint18_radial_1_30" cx="0" cy="0" r="1" gradientUnits="userSpaceOnUse" gradientTransform="translate(166.73 44.6012) rotate(124.186) scale(3.24834 5.80195)">
<stop stop-color="#EDF9FE"/>
<stop offset="1" stop-color="#EDF9FE" stop-opacity="0"/>
</radialGradient>
<radialGradient id="paint19_radial_1_30" cx="0" cy="0" r="1" gradientUnits="userSpaceOnUse" gradientTransform="translate(137.539 78.2492) rotate(121.812) scale(5.50155 26.7452)">
<stop stop-color="#EDF9FE"/>
<stop offset="1" stop-color="#EDF9FE" stop-opacity="0"/>
</radialGradient>
<radialGradient id="paint20_radial_1_30" cx="0" cy="0" r="1" gradientUnits="userSpaceOnUse" gradientTransform="translate(170.611 80.6277) rotate(-147.739) scale(1.75683 5.06129)">
<stop stop-color="#EDF9FE"/>
<stop offset="1" stop-color="#EDF9FE" stop-opacity="0"/>
</radialGradient>
<radialGradient id="paint21_radial_1_30" cx="0" cy="0" r="1" gradientUnits="userSpaceOnUse" gradientTransform="translate(182.426 79.1193) rotate(132.613) scale(2.19426 5.05918)">
<stop stop-color="#EDF9FE"/>
<stop offset="1" stop-color="#EDF9FE" stop-opacity="0"/>
</radialGradient>
<radialGradient id="paint22_radial_1_30" cx="0" cy="0" r="1" gradientUnits="userSpaceOnUse" gradientTransform="translate(176.75 80.7437) rotate(87.1585) scale(3.08148 7.11544)">
<stop stop-color="#EDF9FE" stop-opacity="0.707965"/>
<stop offset="1" stop-color="#EDF9FE" stop-opacity="0"/>
</radialGradient>
<radialGradient id="paint23_radial_1_30" cx="0" cy="0" r="1" gradientUnits="userSpaceOnUse" gradientTransform="translate(160.185 72.0417) rotate(82.202) scale(4.56889 16.1258)">
<stop stop-color="#EDF9FE"/>
<stop offset="1" stop-color="#EDF9FE" stop-opacity="0"/>
</radialGradient>
<radialGradient id="paint24_radial_1_30" cx="0" cy="0" r="1" gradientUnits="userSpaceOnUse" gradientTransform="translate(160.185 72.0417) rotate(82.202) scale(4.56889 16.1258)">
<stop stop-color="#EDF9FE"/>
<stop offset="1" stop-color="#EDF9FE" stop-opacity="0"/>
</radialGradient>
<radialGradient id="paint25_radial_1_30" cx="0" cy="0" r="1" gradientUnits="userSpaceOnUse" gradientTransform="translate(163.313 54.0575) rotate(98.2485) scale(3.75328 16.1258)">
<stop stop-color="#EDF9FE"/>
<stop offset="1" stop-color="#EDF9FE" stop-opacity="0"/>
</radialGradient>
<radialGradient id="paint26_radial_1_30" cx="0" cy="0" r="1" gradientUnits="userSpaceOnUse" gradientTransform="translate(69.7743 44.5615) rotate(85.4968) scale(23.6165 8.59236)">
<stop stop-color="#F0F7FE"/>
<stop offset="1" stop-color="#F0F7FE" stop-opacity="0"/>
</radialGradient>
<radialGradient id="paint27_radial_1_30" cx="0" cy="0" r="1" gradientUnits="userSpaceOnUse" gradientTransform="translate(69.7743 44.5615) rotate(85.4968) scale(23.6165 8.59236)">
<stop stop-color="#F0F7FE"/>
<stop offset="1" stop-color="#F0F7FE" stop-opacity="0"/>
</radialGradient>
<radialGradient id="paint28_radial_1_30" cx="0" cy="0" r="1" gradientUnits="userSpaceOnUse" gradientTransform="translate(92.504 15.8754) rotate(174.598) scale(23.5787 8.92461)">
<stop stop-color="#F0F7FE"/>
<stop offset="1" stop-color="#F0F7FE" stop-opacity="0"/>
</radialGradient>
<radialGradient id="paint29_radial_1_30" cx="0" cy="0" r="1" gradientUnits="userSpaceOnUse" gradientTransform="translate(92.504 15.8754) rotate(174.598) scale(23.5787 8.92461)">
<stop stop-color="#F0F7FE"/>
<stop offset="1" stop-color="#F0F7FE" stop-opacity="0"/>
</radialGradient>
<radialGradient id="paint30_radial_1_30" cx="0" cy="0" r="1" gradientUnits="userSpaceOnUse" gradientTransform="translate(104.323 67.7836) rotate(174.598) scale(23.5787 8.92461)">
<stop stop-color="#F0F7FE"/>
<stop offset="1" stop-color="#F0F7FE" stop-opacity="0"/>
</radialGradient>
<radialGradient id="paint31_radial_1_30" cx="0" cy="0" r="1" gradientUnits="userSpaceOnUse" gradientTransform="translate(104.437 80.4192) rotate(166.524) scale(23.2036 8.92395)">
<stop stop-color="#F0F7FE"/>
<stop offset="1" stop-color="#F0F7FE" stop-opacity="0"/>
</radialGradient>
<radialGradient id="paint32_radial_1_30" cx="0" cy="0" r="1" gradientUnits="userSpaceOnUse" gradientTransform="translate(117.975 26.781) rotate(72.0329) scale(29.6444 5.72724)">
<stop stop-color="#F0F7FE"/>
<stop offset="1" stop-color="#F0F7FE" stop-opacity="0"/>
</radialGradient>
<linearGradient id="paint33_linear_1_30" x1="216.851" y1="45.5351" x2="212.499" y2="40.669" gradientUnits="userSpaceOnUse">
<stop stop-color="#1B2AFA"/>
<stop offset="1" stop-color="#1B2AFA" stop-opacity="0"/>
</linearGradient>
<radialGradient id="paint34_radial_1_30" cx="0" cy="0" r="1" gradientUnits="userSpaceOnUse" gradientTransform="translate(189.033 40.5063) rotate(23.559) scale(8.43578 30.7775)">
<stop stop-color="#000426"/>
<stop offset="1" stop-color="#000426" stop-opacity="0"/>
</radialGradient>
<radialGradient id="paint35_radial_1_30" cx="0" cy="0" r="1" gradientUnits="userSpaceOnUse" gradientTransform="translate(189.033 40.5063) rotate(160.979) scale(9.07159 10.6777)">
<stop stop-color="#000426"/>
<stop offset="1" stop-color="#000426" stop-opacity="0"/>
</radialGradient>
<linearGradient id="paint36_linear_1_30" x1="199.36" y1="64.5056" x2="202.835" y2="64.7369" gradientUnits="userSpaceOnUse">
<stop stop-color="#1C2BD7"/>
<stop offset="1" stop-color="#1C2BD7" stop-opacity="0"/>
</linearGradient>
<radialGradient id="paint37_radial_1_30" cx="0" cy="0" r="1" gradientUnits="userSpaceOnUse" gradientTransform="translate(210.712 27.3769) rotate(102.594) scale(6.79277 30.1367)">
<stop stop-color="#8BA4FE"/>
<stop offset="1" stop-color="#8BA4FE" stop-opacity="0"/>
</radialGradient>
<radialGradient id="paint38_radial_1_30" cx="0" cy="0" r="1" gradientUnits="userSpaceOnUse" gradientTransform="translate(211.87 40.604) rotate(117.568) scale(6.79093 10.7048)">
<stop stop-color="#8BA4FE"/>
<stop offset="1" stop-color="#8BA4FE" stop-opacity="0"/>
</radialGradient>
<radialGradient id="paint39_radial_1_30" cx="0" cy="0" r="1" gradientUnits="userSpaceOnUse" gradientTransform="translate(211.87 40.604) rotate(117.568) scale(6.79093 10.7048)">
<stop stop-color="#8BA4FE"/>
<stop offset="1" stop-color="#8BA4FE" stop-opacity="0"/>
</radialGradient>
<radialGradient id="paint40_radial_1_30" cx="0" cy="0" r="1" gradientUnits="userSpaceOnUse" gradientTransform="translate(193.336 79.3571) rotate(44.1825) scale(2.34994 5.18424)">
<stop stop-color="#8BA4FE"/>
<stop offset="1" stop-color="#8BA4FE" stop-opacity="0"/>
</radialGradient>
<radialGradient id="paint41_radial_1_30" cx="0" cy="0" r="1" gradientUnits="userSpaceOnUse" gradientTransform="translate(193.336 79.3571) rotate(44.1825) scale(2.34994 5.18424)">
<stop stop-color="#8BA4FE"/>
<stop offset="1" stop-color="#8BA4FE" stop-opacity="0"/>
</radialGradient>
<radialGradient id="paint42_radial_1_30" cx="0" cy="0" r="1" gradientUnits="userSpaceOnUse" gradientTransform="translate(234.512 70.9353) rotate(66.0082) scale(21.0819 39.6854)">
<stop stop-color="#0218B6"/>
<stop offset="1" stop-color="#0218B6" stop-opacity="0"/>
</radialGradient>
<radialGradient id="paint43_radial_1_30" cx="0" cy="0" r="1" gradientUnits="userSpaceOnUse" gradientTransform="translate(236.539 68.5568) rotate(48.1307) scale(15.5934 7.55017)">
<stop stop-color="#BAC5FE"/>
<stop offset="1" stop-color="#BAC5FE" stop-opacity="0"/>
</radialGradient>
<linearGradient id="paint44_linear_1_30" x1="266.631" y1="64.5026" x2="266.514" y2="72.9726" gradientUnits="userSpaceOnUse">
<stop stop-color="#0619A2"/>
<stop offset="1" stop-color="#0619A2" stop-opacity="0"/>
</linearGradient>
<radialGradient id="paint45_radial_1_30" cx="0" cy="0" r="1" gradientUnits="userSpaceOnUse" gradientTransform="translate(263.328 44.1587) rotate(71.5833) scale(44.3225 8.69851)">
<stop stop-color="#3040E5"/>
<stop offset="1" stop-color="#3040E5" stop-opacity="0"/>
</radialGradient>
<radialGradient id="paint46_radial_1_30" cx="0" cy="0" r="1" gradientUnits="userSpaceOnUse" gradientTransform="translate(263.328 44.1587) rotate(71.3912) scale(31.56 8.69854)">
<stop stop-color="#3040E5"/>
<stop offset="1" stop-color="#3040E5" stop-opacity="0"/>
</radialGradient>
<linearGradient id="paint47_linear_1_30" x1="282.004" y1="71.0691" x2="275.776" y2="68.7784" gradientUnits="userSpaceOnUse">
<stop stop-color="#1324B6"/>
<stop offset="1" stop-color="#1324B6" stop-opacity="0"/>
</linearGradient>
<linearGradient id="paint48_linear_1_30" x1="282.004" y1="71.0691" x2="275.776" y2="68.7784" gradientUnits="userSpaceOnUse">
<stop stop-color="#1324B6"/>
<stop offset="1" stop-color="#1324B6" stop-opacity="0"/>
</linearGradient>
<linearGradient id="paint49_linear_1_30" x1="282.004" y1="71.0691" x2="275.776" y2="68.7784" gradientUnits="userSpaceOnUse">
<stop stop-color="#1324B6"/>
<stop offset="1" stop-color="#1324B6" stop-opacity="0"/>
</linearGradient>
<radialGradient id="paint50_radial_1_30" cx="0" cy="0" r="1" gradientUnits="userSpaceOnUse" gradientTransform="translate(283.642 48.425) rotate(19.6707) scale(3.52945 25.8593)">
<stop stop-color="#C1C7FA"/>
<stop offset="1" stop-color="#C1C7FA" stop-opacity="0"/>
</radialGradient>
<radialGradient id="paint51_radial_1_30" cx="0" cy="0" r="1" gradientUnits="userSpaceOnUse" gradientTransform="translate(265.294 91.744) rotate(19.6707) scale(3.52945 25.8593)">
<stop stop-color="#C1C7FA"/>
<stop offset="1" stop-color="#C1C7FA" stop-opacity="0"/>
</radialGradient>
<radialGradient id="paint52_radial_1_30" cx="0" cy="0" r="1" gradientUnits="userSpaceOnUse" gradientTransform="translate(263.328 44.1587) rotate(71.5833) scale(44.3225 8.69851)">
<stop stop-color="#3040E5"/>
<stop offset="1" stop-color="#3040E5" stop-opacity="0"/>
</radialGradient>
<radialGradient id="paint53_radial_1_30" cx="0" cy="0" r="1" gradientUnits="userSpaceOnUse" gradientTransform="translate(263.328 44.1587) rotate(71.3912) scale(31.56 8.69854)">
<stop stop-color="#3040E5"/>
<stop offset="1" stop-color="#3040E5" stop-opacity="0"/>
</radialGradient>
<linearGradient id="paint54_linear_1_30" x1="282.004" y1="71.0691" x2="275.776" y2="68.7784" gradientUnits="userSpaceOnUse">
<stop stop-color="#1324B6"/>
<stop offset="1" stop-color="#1324B6" stop-opacity="0"/>
</linearGradient>
<linearGradient id="paint55_linear_1_30" x1="282.004" y1="71.0691" x2="275.776" y2="68.7784" gradientUnits="userSpaceOnUse">
<stop stop-color="#1324B6"/>
<stop offset="1" stop-color="#1324B6" stop-opacity="0"/>
</linearGradient>
<linearGradient id="paint56_linear_1_30" x1="282.004" y1="71.0691" x2="275.776" y2="68.7784" gradientUnits="userSpaceOnUse">
<stop stop-color="#1324B6"/>
<stop offset="1" stop-color="#1324B6" stop-opacity="0"/>
</linearGradient>
<radialGradient id="paint57_radial_1_30" cx="0" cy="0" r="1" gradientUnits="userSpaceOnUse" gradientTransform="translate(283.642 48.425) rotate(19.6707) scale(3.52945 25.8593)">
<stop stop-color="#C1C7FA"/>
<stop offset="1" stop-color="#C1C7FA" stop-opacity="0"/>
</radialGradient>
<radialGradient id="paint58_radial_1_30" cx="0" cy="0" r="1" gradientUnits="userSpaceOnUse" gradientTransform="translate(258.17 28.2192) rotate(-49.9608) scale(0.730102 3.71626)">
<stop stop-color="#C1C7FA"/>
<stop offset="1" stop-color="#C1C7FA" stop-opacity="0"/>
</radialGradient>
<radialGradient id="paint59_radial_1_30" cx="0" cy="0" r="1" gradientUnits="userSpaceOnUse" gradientTransform="translate(258.344 27.523) rotate(-65.1764) scale(1.40371 3.72021)">
<stop stop-color="#C1C7FA"/>
<stop offset="1" stop-color="#C1C7FA" stop-opacity="0"/>
</radialGradient>
</defs>
</svg>
